<?xml version="1.0" encoding="UTF-8"?>
<svg xmlns="http://www.w3.org/2000/svg" xmlns:xlink="http://www.w3.org/1999/xlink" viewBox="106 58 688 330">
  <defs>
    <style>
      .cls-1 {
        fill: url(#linear-gradient-2);
      }

      .cls-2 {
        fill: #fff;
      }

      .cls-3 {
        fill: url(#linear-gradient-4);
      }

      .cls-4 {
        fill: #004966;
      }

      .cls-5 {
        fill: url(#linear-gradient-3);
      }

      .cls-6 {
        fill: #59f596;
      }

      .cls-7 {
        fill: url(#linear-gradient);
      }
    </style>
    <linearGradient id="linear-gradient" x1="-2468.39" y1="5539.66" x2="-2468.39" y2="5463.5" gradientTransform="translate(-1944.43 5720.93) rotate(45) scale(1 -1)" gradientUnits="userSpaceOnUse">
      <stop offset=".17" stop-color="#00a78a"/>
      <stop offset="1" stop-color="#59f596"/>
    </linearGradient>
    <linearGradient id="linear-gradient-2" x1="-2468.39" y1="5367.77" x2="-2468.39" y2="5447.92" xlink:href="#linear-gradient"/>
    <linearGradient id="linear-gradient-3" x1="-2434.52" y1="5493.77" x2="-2434.52" y2="5416.71" xlink:href="#linear-gradient"/>
    <linearGradient id="linear-gradient-4" x1="-2376.85" y1="5449.25" x2="-2376.85" y2="5376.23" xlink:href="#linear-gradient"/>
  </defs>
  <g id="Logos">
    <g>
      <g>
        <path class="cls-2" d="M124.85,348.32c-3.07,0-5.83-.74-8.26-2.21-2.43-1.47-4.35-3.58-5.74-6.33-1.39-2.74-2.09-6.01-2.09-9.81s.7-7.11,2.1-9.85c1.4-2.74,3.31-4.85,5.74-6.33,2.42-1.47,5.17-2.21,8.25-2.21,1.89,0,3.66.27,5.32.82s3.14,1.34,4.45,2.38c1.31,1.04,2.4,2.31,3.25,3.82.86,1.5,1.43,3.21,1.72,5.11h-5.42c-.21-1.17-.6-2.2-1.16-3.08-.57-.89-1.26-1.64-2.09-2.26-.82-.62-1.74-1.08-2.76-1.39-1.02-.31-2.09-.47-3.23-.47-2.05,0-3.89.52-5.53,1.55-1.64,1.03-2.93,2.55-3.86,4.56-.94,2.01-1.4,4.46-1.4,7.36s.47,5.36,1.42,7.36c.94,1.99,2.23,3.5,3.86,4.52,1.63,1.02,3.46,1.54,5.5,1.54,1.14,0,2.21-.15,3.22-.46,1.01-.3,1.93-.76,2.76-1.37.83-.61,1.53-1.35,2.1-2.22.57-.87.96-1.88,1.19-3.04h5.42c-.27,1.78-.82,3.4-1.66,4.86-.83,1.46-1.9,2.73-3.19,3.79-1.3,1.06-2.78,1.89-4.44,2.47-1.67.58-3.48.88-5.45.88Z"/>
        <path class="cls-2" d="M149.57,347.84v-35.77h22.44v4.63h-17.04v10.78h15.84v4.61h-15.84v11.11h17.21v4.63h-22.61Z"/>
        <path class="cls-2" d="M182.68,347.84v-35.77h5.4v31.13h16.2v4.63h-21.6Z"/>
        <path class="cls-2" d="M213.9,347.84v-35.77h22.44v4.63h-17.04v10.78h15.84v4.61h-15.84v11.11h17.21v4.63h-22.61Z"/>
        <path class="cls-2" d="M247.01,347.84v-35.77h13.13c2.53,0,4.62.42,6.29,1.25,1.66.83,2.91,1.96,3.73,3.37.82,1.42,1.24,3,1.24,4.76,0,1.49-.28,2.75-.83,3.77-.55,1.02-1.28,1.84-2.2,2.45s-1.92,1.06-3.02,1.34v.34c1.2.06,2.37.45,3.5,1.15,1.14.71,2.08,1.7,2.82,2.99s1.12,2.86,1.12,4.72-.43,3.46-1.28,4.91c-.86,1.45-2.17,2.6-3.95,3.44-1.78.85-4.06,1.27-6.84,1.27h-13.71ZM252.41,327.56h7.25c1.2,0,2.29-.23,3.26-.7s1.75-1.12,2.32-1.98c.57-.86.85-1.85.85-2.99,0-1.47-.52-2.71-1.55-3.71s-2.61-1.5-4.74-1.5h-7.39v10.87ZM252.41,343.23h7.78c2.59,0,4.45-.5,5.57-1.51,1.12-1.01,1.68-2.26,1.68-3.77,0-1.14-.28-2.17-.85-3.11-.57-.94-1.38-1.68-2.44-2.24-1.06-.56-2.3-.84-3.75-.84h-7.99v11.47Z"/>
        <path class="cls-2" d="M282.64,347.84v-35.77h12.77c2.77,0,5.06.48,6.89,1.43,1.82.95,3.19,2.27,4.1,3.96.91,1.69,1.37,3.64,1.37,5.85s-.46,4.1-1.37,5.76c-.91,1.67-2.28,2.95-4.12,3.87s-4.14,1.37-6.93,1.37h-9.63v-4.61h9.12c1.78,0,3.21-.26,4.31-.77,1.1-.51,1.9-1.24,2.4-2.18.5-.94.76-2.09.76-3.43s-.26-2.53-.77-3.52c-.51-.98-1.32-1.74-2.41-2.28-1.1-.54-2.53-.8-4.31-.8h-6.79v31.13h-5.4ZM303,347.84l-8.67-16.16h5.98l8.83,16.16h-6.15Z"/>
        <path class="cls-2" d="M320.89,347.84h-5.74l12.87-35.77h6.24l12.84,35.77h-5.71l-10.13-29.26h-.29l-10.08,29.26ZM321.85,333.85h18.56v4.51h-18.56v-4.51Z"/>
        <path class="cls-2" d="M349.69,316.71v-4.63h27.7v4.63h-11.14v31.13h-5.38v-31.13h-11.19Z"/>
        <path class="cls-2" d="M392.33,312.07v35.77h-5.4v-35.77h5.4Z"/>
        <path class="cls-2" d="M432.57,312.07v35.77h-5.04l-18.12-26.21h-.36v26.21h-5.4v-35.77h4.99l18.2,26.26h.34v-26.26h5.4Z"/>
        <path class="cls-2" d="M459.01,348.32c-3.23,0-6.07-.74-8.51-2.23-2.44-1.49-4.34-3.6-5.71-6.35s-2.05-6-2.05-9.76.69-7.09,2.08-9.83c1.38-2.75,3.29-4.86,5.7-6.34,2.42-1.48,5.17-2.22,8.26-2.22,1.92,0,3.72.28,5.39.85,1.67.57,3.16,1.38,4.46,2.44,1.3,1.06,2.38,2.3,3.24,3.73.86,1.43,1.44,3.02,1.74,4.77h-5.52c-.34-1.07-.78-2.03-1.34-2.87-.56-.84-1.23-1.56-2.02-2.16-.78-.6-1.67-1.06-2.65-1.37-.98-.31-2.08-.47-3.28-.47-2.02,0-3.83.52-5.45,1.55-1.62,1.03-2.9,2.55-3.84,4.55-.94,2-1.42,4.45-1.42,7.35s.47,5.35,1.42,7.35c.94,2,2.24,3.52,3.89,4.55s3.52,1.55,5.62,1.55c1.94,0,3.62-.4,5.07-1.19,1.44-.79,2.56-1.91,3.36-3.35.8-1.44,1.2-3.15,1.2-5.11l1.42.26h-10.23v-4.46h14.07v4.08c0,3.01-.64,5.61-1.91,7.8s-3.03,3.89-5.28,5.09-4.81,1.8-7.69,1.8Z"/>
        <path class="cls-2" d="M500.22,347.84v-3.89l12.1-12.58c1.28-1.34,2.34-2.53,3.18-3.56s1.47-2.01,1.9-2.94.64-1.91.64-2.95c0-1.2-.28-2.23-.84-3.1s-1.32-1.53-2.28-1.99-2.05-.7-3.26-.7c-1.28,0-2.39.26-3.34.78-.94.52-1.68,1.26-2.2,2.21-.52.95-.78,2.07-.78,3.35h-5.14c0-2.18.5-4.08,1.5-5.71,1-1.63,2.38-2.9,4.13-3.8,1.75-.9,3.73-1.36,5.94-1.36s4.24.45,5.95,1.34c1.71.9,3.05,2.11,4.01,3.64s1.44,3.25,1.44,5.17c0,1.33-.24,2.62-.73,3.89-.49,1.26-1.34,2.68-2.57,4.24s-2.92,3.44-5.1,5.63l-7.11,7.44v.29h16.08v4.61h-23.53Z"/>
        <path class="cls-2" d="M546.3,348.32c-2.75,0-5.11-.72-7.07-2.16-1.96-1.44-3.46-3.52-4.49-6.25s-1.55-6.04-1.55-9.93.52-7.18,1.56-9.93c1.04-2.74,2.54-4.84,4.5-6.29,1.96-1.45,4.31-2.17,7.04-2.17s5.11.72,7.07,2.17c1.96,1.45,3.46,3.54,4.49,6.29,1.03,2.75,1.55,6.05,1.55,9.93s-.51,7.2-1.54,9.93-2.51,4.81-4.46,6.25-4.32,2.16-7.11,2.16ZM546.3,343.71c1.68,0,3.1-.54,4.25-1.61s2.03-2.64,2.64-4.69c.61-2.06.91-4.53.91-7.43s-.3-5.4-.91-7.45c-.61-2.06-1.49-3.62-2.64-4.71s-2.57-1.62-4.25-1.62c-2.48,0-4.4,1.2-5.75,3.61-1.35,2.41-2.03,5.8-2.03,10.17,0,2.9.3,5.37.91,7.43.61,2.06,1.49,3.62,2.65,4.69s2.56,1.61,4.21,1.61Z"/>
        <path class="cls-2" d="M570.22,336.13v-4.73h23.62v4.73h-23.62ZM579.7,345.56v-23.6h4.68v23.6h-4.68Z"/>
        <path class="cls-2" d="M619.57,312.07h6.12l9.36,16.28h.38l9.31-16.28h6.17l-12.99,21.72v14.04h-5.4v-14.04l-12.96-21.72Z"/>
        <path class="cls-2" d="M659.48,347.84v-35.77h22.44v4.63h-17.04v10.78h15.84v4.61h-15.84v11.11h17.21v4.63h-22.61Z"/>
        <path class="cls-2" d="M695.64,347.84h-5.74l12.87-35.77h6.24l12.84,35.77h-5.71l-10.13-29.26h-.29l-10.08,29.26ZM696.6,333.85h18.56v4.51h-18.56v-4.51Z"/>
        <path class="cls-2" d="M730.46,347.84v-35.77h12.77c2.77,0,5.07.48,6.89,1.43,1.82.95,3.19,2.27,4.1,3.96.91,1.69,1.37,3.64,1.37,5.85s-.46,4.1-1.37,5.76c-.91,1.67-2.28,2.95-4.12,3.87-1.83.91-4.14,1.37-6.93,1.37h-9.63v-4.61h9.12c1.78,0,3.21-.26,4.31-.77,1.1-.51,1.9-1.24,2.4-2.18s.76-2.09.76-3.43-.26-2.53-.77-3.52c-.51-.98-1.32-1.74-2.41-2.28-1.1-.54-2.53-.8-4.31-.8h-6.79v31.13h-5.4ZM750.81,347.84l-8.67-16.16h5.98l8.83,16.16h-6.14Z"/>
        <path class="cls-2" d="M777.64,348.42c-2.67,0-4.99-.42-6.95-1.26-1.96-.84-3.49-2.04-4.6-3.61s-1.72-3.43-1.85-5.59h5.43c.11,1.3.53,2.37,1.26,3.23s1.68,1.49,2.84,1.91,2.45.62,3.84.62c1.52,0,2.88-.24,4.08-.72,1.2-.48,2.14-1.16,2.82-2.03.68-.87,1.02-1.89,1.02-3.06,0-1.06-.3-1.92-.9-2.59-.6-.67-1.41-1.23-2.44-1.67-1.02-.44-2.18-.83-3.46-1.16l-4.2-1.15c-2.88-.77-5.15-1.92-6.82-3.44-1.67-1.53-2.5-3.53-2.5-6.01,0-2.06.56-3.87,1.67-5.4,1.11-1.54,2.62-2.73,4.54-3.59,1.91-.86,4.06-1.28,6.45-1.28s4.57.43,6.42,1.28c1.85.86,3.31,2.03,4.39,3.5,1.08,1.48,1.64,3.17,1.69,5.08h-5.23c-.19-1.65-.96-2.93-2.29-3.84s-3.04-1.37-5.1-1.37c-1.44,0-2.7.23-3.78.68s-1.91,1.08-2.5,1.88c-.58.8-.88,1.72-.88,2.76,0,1.12.35,2.03,1.04,2.74.7.71,1.54,1.26,2.54,1.67s1.96.74,2.89,1l3.48.94c1.14.29,2.3.67,3.5,1.15,1.2.48,2.32,1.11,3.35,1.88s1.86,1.74,2.5,2.88.95,2.52.95,4.14c0,2-.52,3.79-1.56,5.37s-2.54,2.82-4.51,3.72-4.35,1.36-7.15,1.36Z"/>
      </g>
      <rect class="cls-2" x="109.57" y="289.64" width="679.07" height="2"/>
      <g>
        <g>
          <path class="cls-2" d="M353.2,82.46h32.89v13.04h-26.12v14.69h25.23v12.99h-25.23v15.41h26.12v13.04h-41.56v-60.49c0-4.79,3.88-8.67,8.67-8.67h0Z"/>
          <path class="cls-2" d="M397.19,82.46h18.88l8.97,22.86c1.69,4.23,3.09,8.04,4.53,12.4,1.44-4.36,2.96-8.34,4.57-12.4l8.97-22.86h18.83v69.16h-13.88v-29.5c0-4.95.08-10.54.42-17.52-2.45,7.7-4.95,13.88-7.49,19.85l-6.35,14.01h-10.16l-6.35-14.01c-2.54-5.97-4.99-12.15-7.49-19.85.38,6.98.47,12.57.47,17.52v29.5h-13.93v-69.16h0Z"/>
          <path class="cls-2" d="M482.96,82.46h32.89v13.04h-26.12v14.69h25.23v12.99h-25.23v15.41h26.12v13.04h-41.56v-60.49c0-4.79,3.88-8.67,8.67-8.67h0Z"/>
          <path class="cls-2" d="M526.95,85.51c0-1.68,1.36-3.05,3.05-3.05h23.83c14.86,0,21.58,5.76,21.58,18.37v3.56c0,8.14-4.02,13.92-10.99,15.44-.22.05-.21.35,0,.39,7.97,1.37,11.28,6.79,11.28,15.02v16.38h-16.04v-19.43c0-3.89-1.86-5.46-5.88-5.46h-7.93c-1.93,0-3.5,1.57-3.5,3.5v21.39h-15.41v-66.11h0ZM553.95,113.82c4.06,0,5.67-1.52,5.71-5.04v-9.18c.04-3.39-1.57-4.91-5.67-4.91h-11.64v19.13h11.6Z"/>
          <path class="cls-2" d="M624.4,137.52h-21.2l-3.56,14.09h-16.38l18.43-67.23c.31-1.14,1.34-1.92,2.52-1.92h10.6c6.21,0,11.65,4.15,13.3,10.14l16.18,59.02h-16.38l-3.51-14.09h0ZM620.39,125.5c.51,0,.88-.48.76-.97l-3.14-12.49c-1.44-5.76-2.75-10.96-4.23-17.65-1.48,6.69-2.79,11.89-4.19,17.65l-3.14,12.49c-.12.49.25.97.76.97h13.2-.02Z"/>
          <path class="cls-2" d="M654.8,82.46h4.74c4.59,0,8.31,3.72,8.31,8.31v47.81h23.32v13.04h-38.77v-66.76c0-1.33,1.08-2.4,2.4-2.4Z"/>
          <path class="cls-2" d="M698.46,82.46h27.34c15.62,0,23.87,6.82,23.87,21.42v26.37c0,14.56-8.25,21.37-23.87,21.37h-27.34v-69.16h0ZM726.43,138.37c4.91,0,7.53-2.03,7.53-7.37v-27.94c0-5.33-2.62-7.36-7.53-7.36h-12.57v42.66h12.57Z"/>
        </g>
        <g>
          <path class="cls-2" d="M378.29,187.84h-5.27c-.31-1.52-.85-2.85-1.63-4-.77-1.15-1.71-2.12-2.81-2.9-1.1-.79-2.31-1.38-3.65-1.78-1.33-.4-2.72-.6-4.17-.6-2.64,0-5.02.67-7.16,2-2.13,1.33-3.83,3.3-5.08,5.89s-1.88,5.78-1.88,9.55.63,6.95,1.88,9.55c1.25,2.59,2.95,4.56,5.08,5.89,2.13,1.33,4.52,2,7.16,2,1.45,0,2.83-.2,4.17-.6,1.33-.4,2.55-.99,3.65-1.78s2.03-1.76,2.81-2.91c.77-1.16,1.31-2.48,1.63-3.99h5.27c-.4,2.23-1.12,4.22-2.17,5.98-1.05,1.76-2.35,3.25-3.91,4.48-1.56,1.23-3.31,2.16-5.24,2.8-1.94.64-4,.96-6.2.96-3.71,0-7.02-.91-9.91-2.72-2.89-1.81-5.17-4.39-6.83-7.74-1.66-3.35-2.49-7.31-2.49-11.91s.83-8.56,2.49-11.91,3.93-5.93,6.83-7.74c2.89-1.81,6.19-2.72,9.91-2.72,2.2,0,4.26.32,6.2.96,1.93.64,3.68,1.57,5.24,2.8,1.56,1.23,2.86,2.71,3.91,4.47,1.05,1.75,1.77,3.75,2.17,5.99v-.02Z"/>
          <path class="cls-2" d="M384.7,217.78v-43.55h5.27v38.87h20.24v4.68h-25.52.01Z"/>
          <path class="cls-2" d="M421.56,174.23v43.55h-5.27v-43.55h5.27Z"/>
          <path class="cls-2" d="M464.54,174.23v43.55h-5.1l-23.73-34.19h-.43v34.19h-5.27v-43.55h5.1l23.82,34.28h.43v-34.28h5.19-.01Z"/>
          <path class="cls-2" d="M478.26,174.23v43.55h-5.27v-43.55h5.27Z"/>
          <path class="cls-2" d="M521.76,187.84h-5.27c-.31-1.52-.85-2.85-1.63-4-.77-1.15-1.71-2.12-2.81-2.9-1.1-.79-2.31-1.38-3.65-1.78-1.33-.4-2.72-.6-4.17-.6-2.64,0-5.02.67-7.16,2-2.13,1.33-3.83,3.3-5.08,5.89s-1.88,5.78-1.88,9.55.63,6.95,1.88,9.55c1.25,2.59,2.95,4.56,5.08,5.89,2.13,1.33,4.52,2,7.16,2,1.45,0,2.83-.2,4.17-.6,1.33-.4,2.55-.99,3.65-1.78s2.03-1.76,2.81-2.91c.77-1.16,1.31-2.48,1.63-3.99h5.27c-.4,2.23-1.12,4.22-2.17,5.98-1.05,1.76-2.35,3.25-3.91,4.48-1.56,1.23-3.31,2.16-5.24,2.8-1.94.64-4,.96-6.2.96-3.71,0-7.02-.91-9.91-2.72s-5.17-4.39-6.83-7.74c-1.66-3.35-2.49-7.31-2.49-11.91s.83-8.56,2.49-11.91,3.93-5.93,6.83-7.74c2.89-1.81,6.19-2.72,9.91-2.72,2.2,0,4.26.32,6.2.96,1.93.64,3.68,1.57,5.24,2.8,1.56,1.23,2.86,2.71,3.91,4.47,1.05,1.75,1.77,3.75,2.17,5.99v-.02Z"/>
          <path class="cls-2" d="M529.95,217.78h-5.53l15.99-43.55h5.44l15.99,43.55h-5.53l-13.01-36.66h-.34l-13.01,36.66h0ZM531.99,200.77h22.28v4.68h-22.28v-4.68Z"/>
          <path class="cls-2" d="M566.56,217.78v-43.55h5.27v38.87h20.24v4.68h-25.52.01Z"/>
          <path class="cls-2" d="M600.51,178.91v-4.68h32.66v4.68h-13.69v38.87h-5.27v-38.87h-13.7Z"/>
          <path class="cls-2" d="M639.24,217.78v-43.55h14.71c3.4,0,6.2.58,8.38,1.73,2.18,1.16,3.8,2.74,4.85,4.75,1.05,2.01,1.57,4.3,1.57,6.87s-.52,4.84-1.57,6.83c-1.05,1.98-2.66,3.54-4.83,4.67-2.17,1.13-4.94,1.69-8.31,1.69h-11.91v-4.76h11.74c2.32,0,4.2-.34,5.62-1.02,1.42-.68,2.46-1.65,3.1-2.9.64-1.25.97-2.75.97-4.5s-.33-3.27-.98-4.57c-.65-1.3-1.69-2.31-3.13-3.03-1.43-.71-3.32-1.07-5.68-1.07h-9.27v38.87h-5.27.01ZM659.74,198.22l10.72,19.56h-6.12l-10.55-19.56h5.95Z"/>
          <path class="cls-2" d="M680.69,174.23v43.55h-5.27v-43.55h5.27Z"/>
          <path class="cls-2" d="M690.93,217.78h-5.53l15.99-43.55h5.44l15.99,43.55h-5.53l-13.01-36.66h-.34l-13.01,36.66h0ZM692.97,200.77h22.28v4.68h-22.28v-4.68Z"/>
          <path class="cls-2" d="M727.53,217.78v-43.55h5.27v38.87h20.24v4.68h-25.52.01Z"/>
          <path class="cls-2" d="M782.94,185.12c-.26-2.15-1.29-3.83-3.1-5.02s-4.04-1.79-6.68-1.79c-1.93,0-3.61.31-5.05.94-1.44.62-2.56,1.48-3.36,2.57s-1.2,2.33-1.2,3.72c0,1.16.28,2.16.84,2.99s1.28,1.52,2.16,2.06c.88.55,1.8.99,2.76,1.34.96.35,1.85.63,2.66.84l4.42,1.19c1.13.3,2.4.71,3.8,1.23,1.4.52,2.74,1.24,4.02,2.14,1.28.9,2.34,2.05,3.18,3.46.84,1.41,1.25,3.13,1.25,5.17,0,2.35-.61,4.48-1.84,6.38-1.23,1.9-3.01,3.41-5.36,4.53-2.35,1.12-5.19,1.68-8.54,1.68-3.12,0-5.82-.5-8.09-1.51-2.28-1.01-4.06-2.41-5.36-4.21s-2.03-3.89-2.2-6.27h5.44c.14,1.64.7,3,1.67,4.07s2.2,1.86,3.7,2.38c1.5.52,3.11.78,4.84.78,2.01,0,3.82-.33,5.42-.99s2.87-1.58,3.81-2.76c.94-1.18,1.4-2.57,1.4-4.16,0-1.45-.4-2.62-1.21-3.53s-1.87-1.64-3.19-2.21-2.74-1.06-4.27-1.49l-5.36-1.53c-3.4-.98-6.1-2.37-8.08-4.19-1.98-1.81-2.98-4.19-2.98-7.12,0-2.44.66-4.57,1.99-6.39,1.33-1.82,3.11-3.24,5.36-4.25s4.76-1.52,7.54-1.52,5.3.5,7.48,1.5,3.92,2.36,5.2,4.09c1.28,1.73,1.96,3.69,2.03,5.89h-5.1Z"/>
        </g>
      </g>
      <g>
        <path class="cls-6" d="M163.88,114.49h-57.44c0-31.72,25.72-57.44,57.44-57.44h0v57.44Z"/>
        <rect class="cls-7" x="171.17" y="57.05" width="57.44" height="57.44"/>
        <path class="cls-6" d="M235.9,114.49h0v-57.44h57.44c0,31.72-25.72,57.44-57.44,57.44h0Z"/>
        <rect class="cls-1" x="106.44" y="121.78" width="57.44" height="57.44"/>
        <path class="cls-5" d="M171.17,179.22v-57.44h57.44c0,31.72-25.72,57.44-57.44,57.44h0Z"/>
        <path class="cls-6" d="M163.88,243.95h0c-31.72,0-57.44-25.72-57.44-57.44h57.44v57.44Z"/>
        <rect class="cls-3" x="171.17" y="186.51" width="57.44" height="57.44"/>
        <path class="cls-6" d="M293.34,243.95h-57.44v-57.44h0c31.72,0,57.44,25.72,57.44,57.44Z"/>
      </g>
    </g>
  </g>
</svg>
