<svg width="146" height="40" viewBox="0 0 146 40" fill="none" xmlns="http://www.w3.org/2000/svg">
<g clip-path="url(#clip0_15225_2538)">
<path d="M12.2932 12.2932H0C0 5.50455 5.50455 0 12.2932 0V12.2932Z" fill="#59F596"/>
<path d="M26.147 0H13.8538V12.2932H26.147V0Z" fill="url(#paint0_linear_15225_2538)"/>
<path d="M27.7063 12.2932V0H39.9995C39.9995 6.78866 34.495 12.2932 27.7063 12.2932Z" fill="#59F596"/>
<path d="M12.2932 13.8535H0V26.1467H12.2932V13.8535Z" fill="url(#paint1_linear_15225_2538)"/>
<path d="M13.8538 26.1467V13.8535H26.147C26.147 20.6422 20.6424 26.1467 13.8538 26.1467Z" fill="url(#paint2_linear_15225_2538)"/>
<path d="M12.2932 39.9993C5.50455 39.9993 0 34.4947 0 27.7061H12.2932V39.9993Z" fill="#59F596"/>
<path d="M26.147 27.7061H13.8538V39.9993H26.147V27.7061Z" fill="url(#paint3_linear_15225_2538)"/>
<path d="M39.9995 39.9993H27.7063V27.7061C34.495 27.7061 39.9995 33.2106 39.9995 39.9993Z" fill="#59F596"/>
<path d="M52.8109 5.4375H59.8499V8.2283H54.2598V11.3722H59.6594V14.1523H54.2598V17.4503H59.8499V20.2411H50.9553V7.29518C50.9553 6.27003 51.7857 5.43964 52.8109 5.43964V5.4375Z" fill="#004966"/>
<path d="M62.2258 5.4375H66.2664L68.1862 10.33C68.5479 11.2353 68.8475 12.0507 69.1557 12.9838C69.4639 12.0507 69.7892 11.1989 70.1337 10.33L72.0535 5.4375H76.0835V20.239H73.1129V13.9255C73.1129 12.8661 73.13 11.6697 73.2028 10.1759C72.6784 11.8238 72.1434 13.1464 71.5998 14.4241L70.2408 17.4225H68.0663L66.7073 14.4241C66.1637 13.1464 65.6394 11.8238 65.1043 10.1759C65.1856 11.6697 65.2049 12.8661 65.2049 13.9255V20.239H62.2236V5.4375H62.2258Z" fill="#004966"/>
<path d="M80.5819 5.4375H87.6209V8.2283H82.0308V11.3722H87.4304V14.1523H82.0308V17.4503H87.6209V20.2411H78.7263V7.29518C78.7263 6.27003 79.5567 5.43964 80.5819 5.43964V5.4375Z" fill="#004966"/>
<path d="M89.9968 6.09026C89.9968 5.7307 90.2878 5.4375 90.6495 5.4375H95.7496C98.9299 5.4375 100.368 6.67024 100.368 9.36901V10.1309C100.368 11.873 99.5077 13.1101 98.016 13.4354C97.9689 13.4461 97.9711 13.5103 98.016 13.5188C99.7218 13.812 100.43 14.972 100.43 16.7334V20.239H96.9973V16.0806C96.9973 15.2481 96.5992 14.9121 95.7389 14.9121H94.0417C93.6287 14.9121 93.2927 15.2481 93.2927 15.6611V20.239H89.9946V6.09026H89.9968ZM95.7753 12.1491C96.6442 12.1491 96.9887 11.8238 96.9973 11.0705V9.10577C97.0059 8.38025 96.6613 8.05494 95.7838 8.05494H93.2927V12.1491H95.7753Z" fill="#004966"/>
<path d="M110.853 17.2213H106.315L105.553 20.2369H102.048L105.992 5.84841C106.059 5.60443 106.279 5.4375 106.532 5.4375H108.8C110.129 5.4375 111.293 6.32568 111.647 7.60764L115.109 20.239H111.604L110.853 17.2235V17.2213ZM109.994 14.6488C110.103 14.6488 110.183 14.5461 110.157 14.4412L109.485 11.7682C109.177 10.5354 108.896 9.42252 108.58 7.99074C108.263 9.42252 107.983 10.5354 107.683 11.7682L107.011 14.4412C106.985 14.5461 107.064 14.6488 107.174 14.6488H109.999H109.994Z" fill="#004966"/>
<path d="M117.359 5.4375H118.373C119.356 5.4375 120.152 6.23365 120.152 7.21599V17.4482H125.143V20.239H116.845V5.95114C116.845 5.6665 117.076 5.4375 117.359 5.4375Z" fill="#004966"/>
<path d="M126.702 5.4375H132.554C135.897 5.4375 137.662 6.8971 137.662 10.0218V15.6654C137.662 18.7815 135.897 20.239 132.554 20.239H126.702V5.4375ZM132.688 17.4033C133.739 17.4033 134.3 16.9688 134.3 15.8259V9.84627C134.3 8.70556 133.739 8.2711 132.688 8.2711H129.998V17.4011H132.688V17.4033Z" fill="#004966"/>
<path d="M58.1808 27.9912H57.053C56.9866 27.6659 56.8711 27.3813 56.7041 27.1351C56.5393 26.889 56.3381 26.6814 56.1027 26.5145C55.8673 26.3454 55.6083 26.2191 55.3216 26.1335C55.0369 26.0479 54.7394 26.0051 54.4291 26.0051C53.8641 26.0051 53.3547 26.1485 52.8967 26.4332C52.4409 26.7178 52.077 27.1394 51.8095 27.6937C51.542 28.248 51.4072 28.9307 51.4072 29.7376C51.4072 30.5444 51.542 31.225 51.8095 31.7815C52.077 32.3358 52.4409 32.7574 52.8967 33.042C53.3526 33.3267 53.8641 33.4701 54.4291 33.4701C54.7394 33.4701 55.0348 33.4273 55.3216 33.3417C55.6062 33.2561 55.8673 33.1298 56.1027 32.9607C56.3381 32.7916 56.5372 32.584 56.7041 32.3379C56.8689 32.0897 56.9845 31.8072 57.053 31.484H58.1808C58.0952 31.9612 57.9411 32.3871 57.7164 32.7638C57.4917 33.1405 57.2135 33.4594 56.8796 33.7226C56.5457 33.9859 56.1712 34.1849 55.7582 34.3219C55.343 34.4588 54.9021 34.5273 54.4312 34.5273C53.6372 34.5273 52.9288 34.3326 52.3103 33.9452C51.6918 33.5578 51.2038 33.0057 50.8486 32.2887C50.4933 31.5717 50.3157 30.7242 50.3157 29.7397C50.3157 28.7553 50.4933 27.9077 50.8486 27.1908C51.2038 26.4738 51.6897 25.9217 52.3103 25.5343C52.9288 25.1469 53.6351 24.9521 54.4312 24.9521C54.9021 24.9521 55.343 25.0206 55.7582 25.1576C56.1712 25.2946 56.5457 25.4936 56.8796 25.7569C57.2135 26.0201 57.4917 26.3368 57.7164 26.7135C57.9411 27.0881 58.0952 27.5161 58.1808 27.9955V27.9912Z" fill="#004966"/>
<path d="M59.5524 34.3986V25.0781H60.6803V33.397H65.012V34.3986H59.5503H59.5524Z" fill="#004966"/>
<path d="M67.4409 25.0781V34.3986H66.313V25.0781H67.4409Z" fill="#004966"/>
<path d="M76.64 25.0781V34.3986H75.5486L70.4699 27.0813H70.3779V34.3986H69.25V25.0781H70.3415L75.4394 32.4147H75.5314V25.0781H76.6422H76.64Z" fill="#004966"/>
<path d="M79.5759 25.0781V34.3986H78.448V25.0781H79.5759Z" fill="#004966"/>
<path d="M88.8864 27.9912H87.7585C87.6922 27.6659 87.5766 27.3813 87.4097 27.1351C87.2449 26.889 87.0437 26.6814 86.8083 26.5145C86.5729 26.3454 86.3139 26.2191 86.0271 26.1335C85.7425 26.0479 85.445 26.0051 85.1347 26.0051C84.5697 26.0051 84.0603 26.1485 83.6023 26.4332C83.1464 26.7178 82.7826 27.1394 82.5151 27.6937C82.2476 28.248 82.1127 28.9307 82.1127 29.7376C82.1127 30.5444 82.2476 31.225 82.5151 31.7815C82.7826 32.3358 83.1464 32.7574 83.6023 33.042C84.0582 33.3267 84.5697 33.4701 85.1347 33.4701C85.445 33.4701 85.7403 33.4273 86.0271 33.3417C86.3118 33.2561 86.5729 33.1298 86.8083 32.9607C87.0437 32.7916 87.2428 32.584 87.4097 32.3379C87.5745 32.0897 87.69 31.8072 87.7585 31.484H88.8864C88.8008 31.9612 88.6467 32.3871 88.422 32.7638C88.1973 33.1405 87.919 33.4594 87.5852 33.7226C87.2513 33.9859 86.8768 34.1849 86.4637 34.3219C86.0485 34.4588 85.6076 34.5273 85.1368 34.5273C84.3428 34.5273 83.6344 34.3326 83.0159 33.9452C82.3974 33.5578 81.9094 33.0057 81.5541 32.2887C81.1989 31.5717 81.0212 30.7242 81.0212 29.7397C81.0212 28.7553 81.1989 27.9077 81.5541 27.1908C81.9094 26.4738 82.3952 25.9217 83.0159 25.5343C83.6344 25.1469 84.3407 24.9521 85.1368 24.9521C85.6076 24.9521 86.0485 25.0206 86.4637 25.1576C86.8768 25.2946 87.2513 25.4936 87.5852 25.7569C87.919 26.0201 88.1973 26.3368 88.422 26.7135C88.6467 27.0881 88.8008 27.5161 88.8864 27.9955V27.9912Z" fill="#004966"/>
<path d="M90.6386 34.3986H89.4551L92.8772 25.0781H94.0415L97.4636 34.3986H96.2801L93.4957 26.5527H93.423L90.6386 34.3986ZM91.0752 30.7582H95.8435V31.7598H91.0752V30.7582Z" fill="#004966"/>
<path d="M98.4746 34.3986V25.0781H99.6024V33.397H103.934V34.3986H98.4724H98.4746Z" fill="#004966"/>
<path d="M105.74 26.0797V25.0781H112.73V26.0797H109.8V34.3986H108.673V26.0797H105.74Z" fill="#004966"/>
<path d="M114.029 34.3986V25.0781H117.177C117.905 25.0781 118.504 25.2023 118.97 25.4484C119.437 25.6966 119.784 26.0348 120.008 26.465C120.233 26.8951 120.344 27.3852 120.344 27.9353C120.344 28.4853 120.233 28.9711 120.008 29.397C119.784 29.8208 119.439 30.1546 118.975 30.3965C118.51 30.6383 117.917 30.7582 117.196 30.7582H114.647V29.7394H117.16C117.656 29.7394 118.059 29.6667 118.363 29.5211C118.667 29.3756 118.889 29.168 119.026 28.9005C119.163 28.633 119.234 28.3119 119.234 27.9374C119.234 27.5629 119.163 27.2376 119.024 26.9593C118.885 26.6811 118.662 26.465 118.354 26.3109C118.048 26.1589 117.644 26.0819 117.138 26.0819H115.154V34.4008H114.027H114.029V34.3986ZM118.416 30.2124L120.71 34.3986H119.401L117.143 30.2124H118.416Z" fill="#004966"/>
<path d="M122.9 25.0781V34.3986H121.772V25.0781H122.9Z" fill="#004966"/>
<path d="M125.092 34.3986H123.908L127.33 25.0781H128.495L131.917 34.3986H130.733L127.949 26.5527H127.876L125.092 34.3986ZM125.528 30.7582H130.297V31.7598H125.528V30.7582Z" fill="#004966"/>
<path d="M132.924 34.3986V25.0781H134.052V33.397H138.384V34.3986H132.922H132.924Z" fill="#004966"/>
<path d="M144.784 27.4094C144.728 26.9492 144.507 26.5897 144.12 26.335C143.733 26.0803 143.255 25.9519 142.69 25.9519C142.277 25.9519 141.918 26.0183 141.61 26.1531C141.301 26.2879 141.062 26.4698 140.891 26.7031C140.719 26.9364 140.634 27.2018 140.634 27.4993C140.634 27.7475 140.694 27.9615 140.813 28.1392C140.933 28.3168 141.087 28.4645 141.276 28.5801C141.464 28.6978 141.661 28.7919 141.866 28.8668C142.072 28.9417 142.262 29.0017 142.436 29.0466L143.382 29.3013C143.624 29.3655 143.895 29.4533 144.195 29.5645C144.495 29.6758 144.781 29.8299 145.055 30.0225C145.329 30.2152 145.556 30.4613 145.736 30.763C145.916 31.0648 146.003 31.4329 146.003 31.8695C146.003 32.3725 145.873 32.8283 145.61 33.235C145.346 33.6416 144.965 33.9648 144.463 34.2045C143.96 34.4442 143.352 34.564 142.635 34.564C141.967 34.564 141.389 34.457 140.903 34.2408C140.415 34.0247 140.034 33.7251 139.756 33.3398C139.478 32.9546 139.322 32.5073 139.285 31.9979H140.45C140.48 32.3489 140.599 32.64 140.807 32.869C141.015 33.098 141.278 33.2671 141.599 33.3783C141.92 33.4896 142.265 33.5453 142.635 33.5453C143.065 33.5453 143.452 33.4747 143.795 33.3334C144.137 33.1922 144.409 32.9953 144.61 32.7427C144.811 32.4902 144.91 32.1927 144.91 31.8524C144.91 31.5421 144.824 31.2917 144.651 31.0969C144.477 30.9022 144.251 30.7459 143.968 30.6239C143.686 30.5019 143.382 30.3971 143.054 30.305L141.907 29.9776C141.179 29.7679 140.602 29.4704 140.178 29.0809C139.754 28.6935 139.54 28.1841 139.54 27.557C139.54 27.0348 139.681 26.579 139.966 26.1895C140.251 25.8 140.632 25.4961 141.113 25.2799C141.595 25.0637 142.132 24.9546 142.727 24.9546C143.322 24.9546 143.861 25.0616 144.328 25.2756C144.794 25.4896 145.167 25.7807 145.441 26.151C145.715 26.5212 145.86 26.9407 145.875 27.4115H144.784V27.4094Z" fill="#004966"/>
</g>
<defs>
<linearGradient id="paint0_linear_15225_2538" x1="25.8611" y1="0.285838" x2="14.3355" y2="11.8114" gradientUnits="userSpaceOnUse">
<stop offset="0.17" stop-color="#00A78A"/>
<stop offset="1" stop-color="#59F596"/>
</linearGradient>
<linearGradient id="paint1_linear_15225_2538" x1="-0.152046" y1="26.2987" x2="11.9774" y2="14.1693" gradientUnits="userSpaceOnUse">
<stop offset="0.17" stop-color="#00A78A"/>
<stop offset="1" stop-color="#59F596"/>
</linearGradient>
<linearGradient id="paint2_linear_15225_2538" x1="24.042" y1="12.3563" x2="12.3803" y2="24.0181" gradientUnits="userSpaceOnUse">
<stop offset="0.17" stop-color="#00A78A"/>
<stop offset="1" stop-color="#59F596"/>
</linearGradient>
<linearGradient id="paint3_linear_15225_2538" x1="26.0321" y1="27.8203" x2="14.9817" y2="38.8707" gradientUnits="userSpaceOnUse">
<stop offset="0.17" stop-color="#00A78A"/>
<stop offset="1" stop-color="#59F596"/>
</linearGradient>
<clipPath id="clip0_15225_2538">
<rect width="146.003" height="40" fill="white"/>
</clipPath>
</defs>
</svg>
