<svg width="85" height="86" viewBox="0 0 85 86" fill="none" xmlns="http://www.w3.org/2000/svg">
<g clip-path="url(#clip0_15147_1273)">
<path d="M32.7707 73.18V63.21L32.3107 62.98C24.3707 58.94 19.4307 50.91 19.4307 42.02C19.4307 29.06 29.9707 18.52 42.9307 18.52C55.8907 18.52 66.4307 29.06 66.4307 42.02C66.4307 50.92 61.5007 58.95 53.5507 62.98L53.0907 63.21V73.18H32.7607H32.7707Z" fill="white"/>
<path d="M42.9407 19.3499C55.4307 19.3499 65.6007 29.5099 65.6007 42.0099C65.6007 50.5799 60.8407 58.3299 53.1907 62.2199L52.2607 62.6899V72.3299H33.6207V62.6899L32.6907 62.2199C25.0307 58.3299 20.2807 50.5899 20.2807 42.0099C20.2807 29.5199 30.4407 19.3499 42.9407 19.3499ZM42.9407 17.6599C29.4907 17.6599 18.5907 28.5599 18.5907 42.0099C18.5907 51.4899 24.0207 59.7099 31.9307 63.7299V74.0299H53.9507V63.7299C61.8607 59.7099 67.2907 51.4999 67.2907 42.0099C67.2907 28.5599 56.3907 17.6599 42.9407 17.6599Z" fill="#00A78A"/>
<path d="M37.0607 84.05V78.9H32.9107V73.27H52.9607V78.9H48.8207V84.05H37.0607Z" fill="white"/>
<path d="M51.9807 74.26V77.92H47.8307V83.07H38.0407V77.92H33.8907V74.26H51.9707M53.9507 72.29H31.9307V79.89H36.0807V85.04H49.8107V79.89H53.9607V72.29H53.9507Z" fill="#00A78A"/>
<path d="M42.9407 0V12.3" stroke="#FF4405" stroke-width="1.41" stroke-miterlimit="10"/>
<path d="M21.9407 63.01L13.2307 71.71" stroke="#FF4405" stroke-width="1.41" stroke-miterlimit="10"/>
<path d="M72.6407 12.3L63.9407 21" stroke="#FF4405" stroke-width="1.41" stroke-miterlimit="10"/>
<path d="M84.9507 42.01H72.6407" stroke="#FF4405" stroke-width="1.41" stroke-miterlimit="10"/>
<path d="M13.2307 42.01H0.930664" stroke="#FF4405" stroke-width="1.41" stroke-miterlimit="10"/>
<path d="M72.6407 71.71L63.9407 63.01" stroke="#FF4405" stroke-width="1.41" stroke-miterlimit="10"/>
<path d="M21.9307 21L13.2307 12.3" stroke="#FF4405" stroke-width="1.41" stroke-miterlimit="10"/>
<path d="M38.0207 45.3199C38.0807 45.0499 37.9907 44.7599 37.7807 44.5699L32.2007 39.6199L39.6307 38.8999C39.9107 38.8699 40.1507 38.6999 40.2607 38.4399L43.2407 31.5999L46.2207 38.4399C46.3307 38.6999 46.5707 38.8699 46.8507 38.8999L54.2807 39.6199L48.6907 44.5699C48.4807 44.7599 48.3907 45.0399 48.4507 45.3199L50.0607 52.5999L43.6307 48.8199C43.5107 48.7499 43.3707 48.7099 43.2407 48.7099C43.1107 48.7099 42.9707 48.7499 42.8507 48.8199L36.4107 52.5999L38.0207 45.3199Z" fill="white"/>
<path d="M43.2507 33.5399L45.5207 38.7599C45.7407 39.2699 46.2307 39.6299 46.7907 39.6799L52.4507 40.2299L48.1907 43.9999C47.7707 44.3699 47.5807 44.9399 47.7107 45.4899L48.9307 51.0299L44.0307 48.1499C43.7907 48.0099 43.5207 47.9399 43.2507 47.9399C42.9807 47.9399 42.7107 48.0099 42.4707 48.1499L37.5607 51.0299L38.7807 45.4799C38.9007 44.9299 38.7207 44.3599 38.3007 43.9899L34.0507 40.2099L39.7107 39.6599C40.2707 39.6099 40.7507 39.2499 40.9807 38.7399L43.2507 33.5199M43.2507 29.6599L39.5607 38.1299L30.3707 39.0199L37.2807 45.1499L35.2907 54.1599L43.2607 49.4799L51.2207 54.1599L49.2307 45.1499L56.1507 39.0199L46.9607 38.1299L43.2707 29.6599H43.2507Z" fill="#EF6820"/>
</g>
<defs>
<clipPath id="clip0_15147_1273">
<rect width="84.02" height="85.04" fill="white" transform="translate(0.930664)"/>
</clipPath>
</defs>
</svg>
