<svg width="86" height="85" viewBox="0 0 86 85" fill="none" xmlns="http://www.w3.org/2000/svg">
<g clip-path="url(#clip0_15147_1206)">
<path d="M42.51 83.92C31.15 83.92 20.49 83.14 12.47 81.73C8.61999 81.05 5.59999 80.27 3.51999 79.4C2.51999 78.98 1.76999 78.56 1.27999 78.15C0.92999 77.85 0.73999 77.57 0.73999 77.35C0.73999 77.13 0.92999 76.85 1.27999 76.55C1.76999 76.13 2.51999 75.71 3.50999 75.3C5.59999 74.43 8.60999 73.65 12.46 72.97C20.48 71.56 31.14 70.78 42.5 70.78C53.86 70.78 64.52 71.56 72.54 72.97C76.39 73.65 79.41 74.43 81.49 75.3C82.49 75.71 83.24 76.14 83.72 76.55C84.07 76.85 84.26 77.13 84.26 77.35C84.26 77.57 84.07 77.85 83.72 78.15C83.24 78.57 82.48 78.99 81.49 79.4C79.4 80.27 76.39 81.05 72.54 81.73C64.53 83.14 53.86 83.92 42.5 83.92H42.51Z" fill="white"/>
<path d="M42.51 71.53C53.82 71.53 64.44 72.3 72.42 73.7C76.17 74.36 79.21 75.15 81.22 75.98C82.37 76.46 82.96 76.86 83.25 77.11C83.36 77.21 83.43 77.28 83.48 77.34C83.44 77.39 83.37 77.47 83.25 77.57C82.96 77.82 82.37 78.22 81.22 78.7C79.21 79.53 76.17 80.32 72.42 80.98C64.45 82.38 53.83 83.15 42.51 83.15C31.19 83.15 20.58 82.38 12.6 80.98C8.84999 80.32 5.80999 79.53 3.79999 78.7C2.64999 78.22 2.05999 77.82 1.76999 77.57C1.65999 77.47 1.58999 77.4 1.53999 77.34C1.57999 77.29 1.64999 77.21 1.76999 77.11C2.05999 76.86 2.64999 76.46 3.79999 75.98C5.80999 75.14 8.84999 74.36 12.6 73.7C20.57 72.3 31.19 71.53 42.51 71.53ZM42.51 70.03C30.72 70.03 20.06 70.87 12.34 72.23C8.47999 72.91 5.36999 73.72 3.22999 74.61C2.15999 75.06 1.33999 75.52 0.78999 75.99C0.23999 76.46 -0.0100098 76.92 -0.0100098 77.36C-0.0100098 77.8 0.23999 78.25 0.78999 78.73C1.33999 79.2 2.14999 79.66 3.22999 80.11C5.36999 81 8.47999 81.81 12.34 82.49C20.05 83.85 30.72 84.69 42.51 84.69C54.3 84.69 64.96 83.85 72.68 82.49C76.54 81.81 79.65 81 81.79 80.11C82.86 79.66 83.68 79.2 84.23 78.73C84.78 78.26 85.03 77.8 85.03 77.36C85.03 76.92 84.78 76.47 84.23 75.99C83.68 75.52 82.87 75.06 81.79 74.61C79.65 73.72 76.54 72.91 72.68 72.23C64.97 70.87 54.3 70.03 42.51 70.03Z" fill="#00A78A"/>
<path d="M42.51 79.01C42.18 79.01 41.85 78.89 41.59 78.69C41.52 78.63 41.48 78.59 41.44 78.55C36.4 72.48 32.48 67.49 29.57 62.68C26.17 57.06 24.51 52.19 24.51 47.79C24.51 43.11 26.43 38.52 29.78 35.21C33.18 31.85 37.69 30 42.5 30C47.31 30 51.82 31.85 55.22 35.21C58.62 38.57 60.49 43.04 60.49 47.79C60.49 52.26 58.88 56.99 55.44 62.68C52.52 67.5 48.61 72.48 43.62 78.49C43.34 78.82 42.94 79.01 42.5 79.01H42.51ZM42.51 39.04C39.11 39.04 36.34 41.78 36.34 45.14C36.34 48.5 39.11 51.24 42.51 51.24C45.91 51.24 48.69 48.51 48.69 45.14C48.69 41.77 45.92 39.04 42.51 39.04Z" fill="white"/>
<path d="M42.51 30.75C47.27 30.75 51.58 32.66 54.7 35.74C57.82 38.82 59.75 43.08 59.75 47.78C59.75 52.48 57.87 57.23 54.81 62.29C51.8 67.27 47.65 72.48 43.06 78.01C42.92 78.17 42.72 78.26 42.52 78.26C42.36 78.26 42.21 78.21 42.08 78.1C42.05 78.08 42.03 78.05 42.01 78.03L41.98 77.99C37.4 72.47 33.25 67.26 30.24 62.28C27.18 57.22 25.29 52.42 25.29 47.77C25.29 43.12 27.22 38.81 30.34 35.73C33.46 32.65 37.77 30.74 42.53 30.74M42.51 51.99C46.33 51.99 49.44 48.93 49.44 45.14C49.44 41.35 46.34 38.29 42.51 38.29C38.68 38.29 35.59 41.36 35.59 45.14C35.59 48.92 38.69 51.99 42.51 51.99ZM42.51 29.25C37.51 29.25 32.8 31.18 29.27 34.67C25.78 38.12 23.77 42.9 23.77 47.78C23.77 52.33 25.46 57.33 28.93 63.06C31.86 67.91 35.8 72.92 40.8 78.95C40.82 78.97 40.86 79.03 40.88 79.05C40.94 79.12 41.01 79.19 41.09 79.25C41.5 79.58 42 79.76 42.5 79.76C43.16 79.76 43.77 79.47 44.19 78.97C49.2 72.94 53.13 67.93 56.07 63.07C59.59 57.25 61.23 52.4 61.23 47.79C61.23 42.84 59.28 38.18 55.74 34.68C52.2 31.18 47.5 29.26 42.49 29.26L42.51 29.25ZM42.51 50.49C39.52 50.49 37.09 48.09 37.09 45.14C37.09 42.19 39.52 39.79 42.51 39.79C45.5 39.79 47.94 42.19 47.94 45.14C47.94 48.09 45.51 50.49 42.51 50.49Z" fill="#EF6820"/>
<path d="M6.01999 34.74C5.84999 34.74 5.68999 34.69 5.55999 34.58C2.81999 32.43 1.23999 29.21 1.23999 25.73C1.23999 19.54 6.27999 14.5 12.47 14.5C18.66 14.5 23.7 19.54 23.7 25.73C23.7 29.2 22.13 32.43 19.39 34.57C19.26 34.67 19.09 34.73 18.93 34.73C18.85 34.73 18.77 34.72 18.7 34.69C18.46 34.61 18.28 34.42 18.21 34.18C17.94 33.21 17.42 32.32 16.72 31.6C16.7 31.58 16.64 31.52 16.62 31.49C15.56 30.44 14.07 29.81 12.49 29.81C10.91 29.81 9.41999 30.43 8.29999 31.55C7.56999 32.27 7.03999 33.18 6.76999 34.17C6.69999 34.41 6.51999 34.6 6.27999 34.68C6.19999 34.7 6.11999 34.72 6.04999 34.72L6.01999 34.74Z" fill="white"/>
<path d="M12.46 15.26C18.25 15.26 22.94 19.95 22.94 25.74C22.94 29.09 21.36 32.07 18.91 33.99C18.6 32.88 18.01 31.89 17.23 31.09C17.22 31.08 17.2 31.06 17.19 31.05C15.98 29.84 14.3 29.08 12.46 29.08C10.62 29.08 8.94999 29.83 7.73999 31.04C6.92999 31.85 6.32999 32.86 6.00999 33.99C3.55999 32.07 1.97999 29.09 1.97999 25.74C1.97999 19.95 6.66999 15.26 12.46 15.26ZM12.46 13.76C5.85999 13.76 0.48999 19.14 0.48999 25.74C0.48999 29.45 2.16999 32.89 5.09999 35.18C5.36999 35.39 5.68999 35.5 6.01999 35.5C6.17999 35.5 6.33999 35.48 6.48999 35.43C6.96999 35.27 7.32999 34.89 7.46999 34.41C7.70999 33.54 8.16999 32.75 8.80999 32.12C9.79999 31.14 11.1 30.6 12.47 30.6C13.84 30.6 15.13 31.13 16.11 32.1C16.13 32.12 16.15 32.15 16.18 32.17C16.79 32.79 17.24 33.57 17.48 34.42C17.61 34.9 17.98 35.29 18.46 35.44C18.61 35.49 18.77 35.51 18.93 35.51C19.26 35.51 19.59 35.4 19.85 35.19C22.77 32.9 24.45 29.46 24.45 25.76C24.45 19.16 19.08 13.78 12.47 13.78L12.46 13.76Z" fill="#00A78A"/>
<path d="M12.46 36.9701C9.93 36.9701 7.54 36.1501 5.55 34.5901C5.31 34.4001 5.21 34.0901 5.29 33.8001C5.64 32.5601 6.3 31.4301 7.21 30.5201C8.62 29.1101 10.48 28.3401 12.46 28.3401C14.44 28.3401 16.31 29.1201 17.72 30.5301C18.64 31.4701 19.29 32.5801 19.63 33.8001C19.71 34.0901 19.61 34.4101 19.37 34.5901C17.38 36.1501 14.99 36.9701 12.46 36.9701Z" fill="white"/>
<path d="M12.47 29.0801C14.31 29.0801 15.99 29.8401 17.2 31.0501C17.2 31.0601 17.22 31.0801 17.24 31.0901C18.03 31.8901 18.61 32.8801 18.92 33.9901C17.14 35.3801 14.9 36.2101 12.47 36.2101C10.04 36.2101 7.8 35.3801 6.02 33.9901C6.34 32.8601 6.94 31.8501 7.75 31.0401C8.96 29.8301 10.63 29.0801 12.47 29.0801ZM12.47 27.5801C10.29 27.5801 8.24 28.4301 6.69 29.9801C5.69 30.9801 4.96 32.2301 4.58 33.5901C4.42 34.1801 4.62 34.8001 5.1 35.1701C7.22 36.8301 9.77 37.7101 12.47 37.7101C15.17 37.7101 17.72 36.8301 19.85 35.1701C20.33 34.8001 20.53 34.1701 20.37 33.5801C20 32.2501 19.29 31.0301 18.33 30.0501C18.31 30.0301 18.29 30.0101 18.27 29.9901C16.72 28.4401 14.66 27.5801 12.48 27.5801H12.47Z" fill="#00A78A"/>
<path d="M12.46 28.1299C14.6526 28.1299 16.43 26.3525 16.43 24.1599C16.43 21.9674 14.6526 20.1899 12.46 20.1899C10.2674 20.1899 8.48999 21.9674 8.48999 24.1599C8.48999 26.3525 10.2674 28.1299 12.46 28.1299Z" fill="white" stroke="#00A78A" stroke-width="1.5" stroke-linejoin="round"/>
<path d="M35.5 20.98C35.33 20.98 35.17 20.93 35.04 20.82C32.3 18.67 30.72 15.45 30.72 11.97C30.72 5.77999 35.76 0.73999 41.95 0.73999C48.14 0.73999 53.18 5.77999 53.18 11.97C53.18 15.44 51.61 18.67 48.87 20.81C48.74 20.91 48.57 20.97 48.41 20.97C48.33 20.97 48.25 20.96 48.18 20.93C47.94 20.85 47.76 20.66 47.69 20.42C47.42 19.45 46.9 18.56 46.2 17.84C46.18 17.82 46.12 17.76 46.1 17.73C45.04 16.68 43.55 16.05 41.96 16.05C40.37 16.05 38.89 16.67 37.77 17.79C37.04 18.51 36.51 19.42 36.24 20.41C36.17 20.65 35.99 20.84 35.75 20.92C35.67 20.94 35.59 20.96 35.52 20.96L35.5 20.98Z" fill="white"/>
<path d="M41.94 1.5C47.73 1.5 52.42 6.19 52.42 11.98C52.42 15.33 50.84 18.31 48.39 20.23C48.08 19.12 47.49 18.13 46.71 17.33C46.7 17.32 46.68 17.3 46.67 17.29C45.46 16.08 43.78 15.32 41.94 15.32C40.1 15.32 38.43 16.07 37.22 17.28C36.41 18.09 35.81 19.1 35.49 20.23C33.04 18.31 31.46 15.33 31.46 11.98C31.46 6.19 36.15 1.5 41.94 1.5ZM41.94 0C35.34 0 29.96 5.37 29.96 11.98C29.96 15.69 31.64 19.13 34.57 21.42C34.84 21.63 35.16 21.74 35.49 21.74C35.65 21.74 35.81 21.72 35.96 21.67C36.44 21.51 36.8 21.13 36.94 20.65C37.18 19.78 37.64 18.99 38.28 18.36C39.27 17.38 40.57 16.84 41.94 16.84C43.31 16.84 44.6 17.37 45.58 18.34C45.6 18.36 45.62 18.39 45.65 18.41C46.26 19.03 46.71 19.81 46.95 20.66C47.08 21.14 47.45 21.53 47.93 21.68C48.08 21.73 48.24 21.75 48.4 21.75C48.73 21.75 49.06 21.64 49.32 21.43C52.24 19.14 53.92 15.7 53.92 12C53.92 5.4 48.55 0.02 41.94 0.02V0Z" fill="#00A78A"/>
<path d="M41.94 23.2001C39.41 23.2001 37.02 22.3801 35.03 20.8201C34.79 20.6301 34.69 20.3201 34.77 20.0301C35.12 18.7901 35.78 17.6601 36.69 16.7501C38.1 15.3401 39.97 14.5701 41.94 14.5701C43.91 14.5701 45.79 15.3501 47.2 16.7601C48.12 17.7001 48.77 18.8201 49.11 20.0301C49.19 20.3201 49.09 20.6401 48.85 20.8201C46.86 22.3801 44.47 23.2001 41.94 23.2001Z" fill="white"/>
<path d="M41.94 15.3201C43.78 15.3201 45.46 16.0801 46.67 17.2901C46.67 17.3001 46.69 17.3201 46.71 17.3301C47.5 18.1301 48.08 19.1201 48.39 20.2301C46.61 21.6201 44.37 22.4501 41.94 22.4501C39.51 22.4501 37.27 21.6201 35.49 20.2301C35.81 19.1001 36.41 18.0901 37.22 17.2801C38.43 16.0701 40.1 15.3201 41.94 15.3201ZM41.94 13.8201C39.76 13.8201 37.71 14.6701 36.16 16.2201C35.16 17.2201 34.43 18.4701 34.05 19.8301C33.89 20.4201 34.09 21.0401 34.57 21.4101C36.69 23.0701 39.24 23.9501 41.94 23.9501C44.64 23.9501 47.19 23.0701 49.32 21.4101C49.8 21.0401 50 20.4101 49.84 19.8201C49.47 18.4901 48.76 17.2701 47.8 16.2901C47.78 16.2701 47.76 16.2501 47.74 16.2301C46.19 14.6801 44.13 13.8201 41.95 13.8201H41.94Z" fill="#00A78A"/>
<path d="M41.94 14.3599C44.1326 14.3599 45.91 12.5825 45.91 10.3899C45.91 8.19735 44.1326 6.41992 41.94 6.41992C39.7475 6.41992 37.97 8.19735 37.97 10.3899C37.97 12.5825 39.7475 14.3599 41.94 14.3599Z" fill="white" stroke="#00A78A" stroke-width="1.5" stroke-linejoin="round"/>
<path d="M66.2 34.74C66.03 34.74 65.87 34.69 65.74 34.58C63 32.43 61.42 29.21 61.42 25.73C61.42 19.54 66.46 14.5 72.65 14.5C78.84 14.5 83.88 19.54 83.88 25.73C83.88 29.2 82.31 32.43 79.57 34.57C79.44 34.67 79.27 34.73 79.11 34.73C79.03 34.73 78.95 34.72 78.88 34.69C78.64 34.61 78.46 34.42 78.39 34.18C78.12 33.21 77.6 32.32 76.9 31.6C76.88 31.58 76.82 31.52 76.8 31.49C75.74 30.44 74.25 29.81 72.66 29.81C71.07 29.81 69.59 30.43 68.47 31.55C67.74 32.27 67.21 33.18 66.94 34.17C66.87 34.41 66.69 34.6 66.45 34.68C66.37 34.7 66.29 34.72 66.22 34.72L66.2 34.74Z" fill="white"/>
<path d="M72.64 15.26C78.43 15.26 83.12 19.95 83.12 25.74C83.12 29.09 81.54 32.07 79.09 33.99C78.78 32.88 78.19 31.89 77.41 31.09C77.4 31.08 77.38 31.06 77.37 31.05C76.16 29.84 74.48 29.08 72.64 29.08C70.8 29.08 69.13 29.83 67.92 31.04C67.11 31.85 66.51 32.86 66.19 33.99C63.74 32.07 62.16 29.09 62.16 25.74C62.16 19.95 66.85 15.26 72.64 15.26ZM72.64 13.76C66.04 13.76 60.66 19.13 60.66 25.74C60.66 29.45 62.34 32.89 65.27 35.18C65.54 35.39 65.86 35.5 66.19 35.5C66.35 35.5 66.51 35.48 66.66 35.43C67.14 35.27 67.5 34.89 67.64 34.41C67.88 33.54 68.34 32.75 68.98 32.12C69.97 31.14 71.27 30.6 72.64 30.6C74.01 30.6 75.3 31.13 76.28 32.1C76.3 32.12 76.32 32.15 76.35 32.17C76.96 32.79 77.41 33.57 77.65 34.41C77.78 34.89 78.15 35.28 78.63 35.43C78.78 35.48 78.94 35.5 79.1 35.5C79.43 35.5 79.76 35.39 80.02 35.18C82.94 32.89 84.62 29.45 84.62 25.75C84.62 19.15 79.25 13.77 72.64 13.77V13.76Z" fill="#00A78A"/>
<path d="M72.64 36.9701C70.11 36.9701 67.72 36.1501 65.73 34.5901C65.49 34.4001 65.39 34.0901 65.47 33.8001C65.82 32.5601 66.48 31.4301 67.39 30.5201C68.8 29.1101 70.66 28.3401 72.64 28.3401C74.62 28.3401 76.49 29.1201 77.9 30.5301C78.82 31.4701 79.47 32.5801 79.81 33.8001C79.89 34.0901 79.79 34.4101 79.55 34.5901C77.56 36.1501 75.17 36.9701 72.64 36.9701Z" fill="white"/>
<path d="M72.65 29.0801C74.49 29.0801 76.17 29.8401 77.38 31.0501C77.38 31.0601 77.4 31.0801 77.42 31.0901C78.21 31.8901 78.79 32.8801 79.1 33.9901C77.32 35.3801 75.08 36.2101 72.65 36.2101C70.22 36.2101 67.98 35.3801 66.2 33.9901C66.52 32.8601 67.12 31.8501 67.93 31.0401C69.14 29.8301 70.81 29.0801 72.65 29.0801ZM72.65 27.5801C70.47 27.5801 68.42 28.4301 66.87 29.9801C65.87 30.9801 65.14 32.2301 64.76 33.5901C64.6 34.1801 64.8 34.8001 65.28 35.1701C67.4 36.8301 69.95 37.7101 72.65 37.7101C75.35 37.7101 77.9 36.8301 80.03 35.1701C80.51 34.8001 80.71 34.1701 80.55 33.5801C80.18 32.2501 79.47 31.0301 78.51 30.0501C78.49 30.0301 78.47 30.0101 78.45 29.9901C76.9 28.4401 74.84 27.5801 72.66 27.5801H72.65Z" fill="#00A78A"/>
<path d="M72.64 28.1299C74.8326 28.1299 76.61 26.3525 76.61 24.1599C76.61 21.9674 74.8326 20.1899 72.64 20.1899C70.4474 20.1899 68.67 21.9674 68.67 24.1599C68.67 26.3525 70.4474 28.1299 72.64 28.1299Z" fill="white" stroke="#00A78A" stroke-width="1.5" stroke-linejoin="round"/>
</g>
<defs>
<clipPath id="clip0_15147_1206">
<rect width="85.03" height="84.67" fill="white"/>
</clipPath>
</defs>
</svg>
