<svg width="58" height="59" viewBox="0 0 58 59" fill="none" xmlns="http://www.w3.org/2000/svg">
<path d="M54.9522 38.3391L48.4112 40.0266L41.6664 35.2466C42.2781 33.7448 42.6154 32.0976 42.6154 30.3697C42.6154 27.027 41.3527 23.9749 39.29 21.706L45.8074 17.2006L53.015 19.3807L53.4542 17.8465L46.4662 15.7311L46.5682 9.30396L45.0153 9.27973L44.9055 15.9006L38.1214 20.5918C35.9882 18.7751 33.2588 17.6851 30.2786 17.6851C29.5727 17.6851 28.8747 17.7497 28.2002 17.8627L27.612 7.89096L33.7608 3.58737L32.8824 2.26318L26.8591 6.47796L22.0985 2.31163L21.0868 3.53085L26.0434 7.87481L26.6552 18.2422C22.0828 19.6875 18.6398 23.7973 18.0359 28.8033L9.33032 28.5773L8.11468 21.2297L6.58532 21.4961L7.80881 28.8922L2.15411 31.6213L2.81291 33.0746L8.83622 30.1679L17.9418 30.402C17.9496 34.9559 20.3025 38.9446 23.8161 41.1812L19.1104 51.0399L12.0204 53.769L12.5694 55.2708L19.3927 52.6386L23.0631 57.8465L24.3258 56.9099L20.5848 51.597L25.1964 41.9321C26.7493 42.6588 28.4669 43.0625 30.2786 43.0625C34.8431 43.0625 38.8273 40.4949 40.9605 36.7L47.7054 41.48L47.5328 48.9164L49.0857 48.9567L49.2583 41.4557L55.3208 39.8893L54.9443 38.3391H54.9522ZM30.2786 41.4638C24.3415 41.4638 19.5103 36.4901 19.5103 30.3778C19.5103 24.2656 24.3415 19.2918 30.2786 19.2918C36.2156 19.2918 41.0468 24.2656 41.0468 30.3778C41.0468 36.4901 36.2156 41.4638 30.2786 41.4638Z" fill="#00A78A"/>
</svg>
