<svg width="87" height="86" viewBox="0 0 87 86" fill="none" xmlns="http://www.w3.org/2000/svg">
<g clip-path="url(#clip0_15147_1244)">
<path d="M73.6007 12.4099L34.8507 46.5399L9.95068 16.3199" stroke="#EF6820" stroke-width="1.5" stroke-linejoin="round"/>
<path d="M9.95068 76.06L34.8507 46.54L73.6007 72.63" stroke="#EF6820" stroke-width="1.5" stroke-linejoin="round"/>
<path d="M73.6007 24.07C67.1707 24.07 61.9407 18.84 61.9407 12.41C61.9407 5.98 67.1707 0.75 73.6007 0.75C80.0307 0.75 85.2607 5.98 85.2607 12.41C85.2607 18.84 80.0307 24.07 73.6007 24.07Z" fill="white"/>
<path d="M73.6007 1.5C79.6207 1.5 84.5107 6.39 84.5107 12.41C84.5107 18.43 79.6207 23.32 73.6007 23.32C67.5807 23.32 62.6907 18.43 62.6907 12.41C62.6907 6.39 67.5807 1.5 73.6007 1.5ZM73.6007 0C66.7507 0 61.1907 5.56 61.1907 12.41C61.1907 19.26 66.7507 24.82 73.6007 24.82C80.4507 24.82 86.0107 19.26 86.0107 12.41C86.0107 5.56 80.4507 0 73.6007 0Z" fill="#00A78A"/>
<path d="M73.6007 84.29C67.1707 84.29 61.9407 79.06 61.9407 72.63C61.9407 66.2 67.1707 60.97 73.6007 60.97C80.0307 60.97 85.2607 66.2 85.2607 72.63C85.2607 79.06 80.0307 84.29 73.6007 84.29Z" fill="white"/>
<path d="M73.6007 61.72C79.6207 61.72 84.5107 66.61 84.5107 72.63C84.5107 78.65 79.6207 83.54 73.6007 83.54C67.5807 83.54 62.6907 78.65 62.6907 72.63C62.6907 66.61 67.5807 61.72 73.6007 61.72ZM73.6007 60.22C66.7507 60.22 61.1907 65.78 61.1907 72.63C61.1907 79.48 66.7507 85.04 73.6007 85.04C80.4507 85.04 86.0107 79.48 86.0107 72.63C86.0107 65.78 80.4507 60.22 73.6007 60.22Z" fill="#00A78A"/>
<path d="M9.9507 84.2901C5.4107 84.2901 1.7207 80.6001 1.7207 76.0601C1.7207 71.5201 5.4107 67.8301 9.9507 67.8301C14.4907 67.8301 18.1807 71.5201 18.1807 76.0601C18.1807 80.6001 14.4907 84.2901 9.9507 84.2901Z" fill="white"/>
<path d="M9.9507 68.5801C14.0807 68.5801 17.4307 71.9401 17.4307 76.0601C17.4307 80.1801 14.0707 83.5401 9.9507 83.5401C5.8307 83.5401 2.4707 80.1801 2.4707 76.0601C2.4707 71.9401 5.8307 68.5801 9.9507 68.5801ZM9.9507 67.0801C4.9907 67.0801 0.970703 71.1001 0.970703 76.0601C0.970703 81.0201 4.9907 85.0401 9.9507 85.0401C14.9107 85.0401 18.9307 81.0201 18.9307 76.0601C18.9307 71.1001 14.9107 67.0801 9.9507 67.0801Z" fill="#00A78A"/>
<path d="M11.5607 27.7701C6.1307 27.7701 1.7207 23.3601 1.7207 17.9301C1.7207 12.5001 6.1307 8.09009 11.5607 8.09009C16.9907 8.09009 21.4007 12.5001 21.4007 17.9301C21.4007 23.3601 16.9907 27.7701 11.5607 27.7701Z" fill="white"/>
<path d="M11.5607 8.84009C16.5707 8.84009 20.6507 12.9201 20.6507 17.9301C20.6507 22.9401 16.5707 27.0201 11.5607 27.0201C6.5507 27.0201 2.4707 22.9401 2.4707 17.9301C2.4707 12.9201 6.5507 8.84009 11.5607 8.84009ZM11.5607 7.34009C5.7107 7.34009 0.970703 12.0801 0.970703 17.9301C0.970703 23.7801 5.7107 28.5201 11.5607 28.5201C17.4107 28.5201 22.1507 23.7801 22.1507 17.9301C22.1507 12.0801 17.4107 7.34009 11.5607 7.34009Z" fill="#00A78A"/>
<path d="M34.8507 61.5001C26.6007 61.5001 19.8907 54.7901 19.8907 46.5401C19.8907 38.2901 26.6007 31.5801 34.8507 31.5801C43.1007 31.5801 49.8107 38.2901 49.8107 46.5401C49.8107 54.7901 43.1007 61.5001 34.8507 61.5001Z" fill="white"/>
<path d="M34.8507 32.3301C42.7007 32.3301 49.0607 38.6901 49.0607 46.5401C49.0607 54.3901 42.7007 60.7501 34.8507 60.7501C27.0007 60.7501 20.6407 54.3901 20.6407 46.5401C20.6407 38.6901 27.0007 32.3301 34.8507 32.3301ZM34.8507 30.8301C26.1907 30.8301 19.1407 37.8801 19.1407 46.5401C19.1407 55.2001 26.1907 62.2501 34.8507 62.2501C43.5107 62.2501 50.5607 55.2001 50.5607 46.5401C50.5607 37.8801 43.5107 30.8301 34.8507 30.8301Z" fill="#EF6820"/>
<path d="M34.8507 53.83C38.8768 53.83 42.1407 50.5662 42.1407 46.54C42.1407 42.5138 38.8768 39.25 34.8507 39.25C30.8245 39.25 27.5607 42.5138 27.5607 46.54C27.5607 50.5662 30.8245 53.83 34.8507 53.83Z" fill="#00A78A"/>
<path d="M34.8507 39.6099C38.6807 39.6099 41.7807 42.7099 41.7807 46.5399C41.7807 50.3699 38.6807 53.4699 34.8507 53.4699C31.0207 53.4699 27.9207 50.3699 27.9207 46.5399C27.9207 42.7099 31.0207 39.6099 34.8507 39.6099ZM34.8507 38.8799C30.6307 38.8799 27.1907 42.3099 27.1907 46.5399C27.1907 50.7699 30.6207 54.1999 34.8507 54.1999C39.0807 54.1999 42.5107 50.7699 42.5107 46.5399C42.5107 42.3099 39.0807 38.8799 34.8507 38.8799Z" fill="white"/>
</g>
<defs>
<clipPath id="clip0_15147_1244">
<rect width="85.04" height="85.04" fill="white" transform="translate(0.970703)"/>
</clipPath>
</defs>
</svg>
