<svg width="87" height="86" viewBox="0 0 87 86" fill="none" xmlns="http://www.w3.org/2000/svg">
<g clip-path="url(#clip0_15147_1299)">
<path d="M16.4539 59.5399C11.7339 59.5399 7.89391 55.6999 7.89391 50.9799C7.89391 46.2599 11.7339 42.4199 16.4539 42.4199C21.1739 42.4199 25.0139 46.2599 25.0139 50.9799C25.0139 55.6999 21.1739 59.5399 16.4539 59.5399Z" fill="white"/>
<path d="M16.4539 43.1699C20.7639 43.1699 24.2639 46.6699 24.2639 50.9799C24.2639 55.2899 20.7639 58.7899 16.4539 58.7899C12.1439 58.7899 8.64391 55.2899 8.64391 50.9799C8.64391 46.6699 12.1439 43.1699 16.4539 43.1699ZM16.4539 41.6699C11.3139 41.6699 7.14391 45.8399 7.14391 50.9799C7.14391 56.1199 11.3139 60.2899 16.4539 60.2899C21.5939 60.2899 25.7639 56.1199 25.7639 50.9799C25.7639 45.8399 21.5939 41.6699 16.4539 41.6699Z" fill="#00A78A"/>
<path d="M1.50391 79.1099V78.8399C1.50391 78.4699 1.51391 78.1099 1.54391 77.7399C1.80391 74.1699 3.35391 70.8099 5.91391 68.2599C8.74391 65.4399 12.4939 63.8799 16.4539 63.8799C20.4139 63.8799 24.1839 65.4399 27.0139 68.2699C27.0139 68.2699 27.0539 68.3099 27.0939 68.3599C29.6039 70.8999 31.1139 74.2299 31.3739 77.7399C31.3739 77.7399 31.3739 77.7599 31.3739 77.7699C31.4039 78.1199 31.4139 78.4699 31.4139 78.8299V79.0999H1.50391V79.1099Z" fill="white"/>
<path d="M16.4539 64.6399C20.2139 64.6399 23.7539 66.1099 26.4439 68.7699C26.4839 68.8099 26.5239 68.8599 26.5639 68.8899C28.9439 71.2999 30.3839 74.4599 30.6239 77.7999C30.6239 77.8199 30.6239 77.8299 30.6239 77.8499C30.6339 78.0199 30.6439 78.1899 30.6539 78.3599H2.26391C2.26391 78.1699 2.28391 77.9899 2.29391 77.7899C2.54391 74.4099 4.01391 71.2099 6.44391 68.7899C9.13391 66.1099 12.6939 64.6299 16.4539 64.6299M16.4539 63.1399C12.1439 63.1399 8.22391 64.8999 5.38391 67.7399C2.78391 70.3299 1.08391 73.8199 0.803906 77.6899C0.773906 78.0699 0.753906 78.4599 0.753906 78.8499V79.8699H32.1639V78.8499C32.1639 78.4599 32.1439 78.0799 32.1139 77.6899C31.8339 73.8799 30.1739 70.4299 27.6239 67.8499C27.5939 67.8199 27.5639 67.7899 27.5439 67.7599C24.7039 64.9199 20.7739 63.1499 16.4539 63.1499V63.1399Z" fill="#00A78A"/>
<path d="M70.5239 59.5399C65.8039 59.5399 61.9639 55.6999 61.9639 50.9799C61.9639 46.2599 65.8039 42.4199 70.5239 42.4199C75.2439 42.4199 79.0839 46.2599 79.0839 50.9799C79.0839 55.6999 75.2439 59.5399 70.5239 59.5399Z" fill="white"/>
<path d="M70.5239 43.1699C74.8339 43.1699 78.3339 46.6699 78.3339 50.9799C78.3339 55.2899 74.8339 58.7899 70.5239 58.7899C66.2139 58.7899 62.7139 55.2899 62.7139 50.9799C62.7139 46.6699 66.2139 43.1699 70.5239 43.1699ZM70.5239 41.6699C65.3839 41.6699 61.2139 45.8399 61.2139 50.9799C61.2139 56.1199 65.3839 60.2899 70.5239 60.2899C75.6639 60.2899 79.8339 56.1199 79.8339 50.9799C79.8339 45.8399 75.6639 41.6699 70.5239 41.6699Z" fill="#00A78A"/>
<path d="M55.5739 79.1099V78.8399C55.5739 78.4699 55.5839 78.1099 55.6139 77.7399C55.8739 74.1699 57.4239 70.8099 59.9839 68.2599C62.8139 65.4399 66.5639 63.8799 70.5239 63.8799C74.4839 63.8799 78.2539 65.4399 81.0839 68.2699C81.0839 68.2699 81.1239 68.3099 81.1639 68.3599C83.6739 70.8999 85.1839 74.2299 85.4439 77.7399C85.4439 77.7399 85.4439 77.7599 85.4439 77.7699C85.4739 78.1199 85.4839 78.4699 85.4839 78.8299V79.0999H55.5739V79.1099Z" fill="white"/>
<path d="M70.5339 64.6399C74.2939 64.6399 77.8339 66.1099 80.5239 68.7699C80.5639 68.8099 80.6039 68.8599 80.6439 68.8899C83.0239 71.2999 84.4639 74.4599 84.7039 77.7999C84.7039 77.8199 84.7039 77.8299 84.7039 77.8499C84.7139 78.0199 84.7239 78.1899 84.7339 78.3599H56.3439C56.3439 78.1699 56.3639 77.9899 56.3739 77.7899C56.6239 74.4099 58.0939 71.2099 60.5239 68.7899C63.2139 66.1099 66.7739 64.6299 70.5339 64.6299M70.5339 63.1399C66.2239 63.1399 62.3039 64.8999 59.4639 67.7399C56.8639 70.3299 55.1639 73.8199 54.8839 77.6899C54.8539 78.0699 54.8339 78.4599 54.8339 78.8499V79.8699H86.2439V78.8499C86.2439 78.4599 86.2339 78.0799 86.1939 77.6899C85.9139 73.8799 84.2539 70.4299 81.7039 67.8499C81.6739 67.8199 81.6439 67.7899 81.6239 67.7599C78.7839 64.9199 74.8539 63.1499 70.5339 63.1499V63.1399Z" fill="#00A78A"/>
<path d="M18.2539 30.21C15.0139 26.95 13.2339 22.62 13.2339 18C13.2339 13.38 15.0139 9.04999 18.2539 5.78999C21.4939 2.52999 25.8039 0.73999 30.3839 0.73999C34.9639 0.73999 39.2739 2.52999 42.5139 5.78999L43.1739 6.44999C43.3139 6.58999 43.5039 6.66999 43.7039 6.66999C43.9039 6.66999 44.0939 6.58999 44.2339 6.44999L44.8939 5.78999C48.1339 2.52999 52.4439 0.73999 57.0239 0.73999C61.6039 0.73999 65.9139 2.52999 69.1539 5.78999C72.3939 9.04999 74.1839 13.38 74.1839 18C74.1839 22.62 72.4039 26.95 69.1639 30.21L43.7039 55.8L18.2439 30.2L18.2539 30.21Z" fill="white"/>
<path d="M57.0339 1.49998C61.4139 1.49998 65.5339 3.21998 68.6339 6.32998C71.7339 9.44998 73.4439 13.59 73.4439 18.01C73.4439 22.43 71.7339 26.57 68.6439 29.69L43.7139 54.75L18.7839 29.69C15.6839 26.57 13.9739 22.43 13.9739 18.01C13.9739 13.59 15.6839 9.44998 18.7839 6.32998C21.8839 3.21998 26.0039 1.49998 30.3839 1.49998C34.7639 1.49998 38.8839 3.21998 41.9839 6.32998L42.6439 6.98998C42.9239 7.26998 43.3039 7.42998 43.7039 7.42998C44.1039 7.42998 44.4839 7.26998 44.7639 6.98998L45.4239 6.32998C48.5239 3.21998 52.6439 1.49998 57.0239 1.49998M57.0339 -1.95317e-05C52.4539 -1.95317e-05 47.8639 1.75998 44.3639 5.26998L43.7039 5.92998L43.0439 5.26998C39.5439 1.74998 34.9639 -1.95317e-05 30.3739 -1.95317e-05C25.7839 -1.95317e-05 21.2039 1.75998 17.7039 5.26998C14.2039 8.78998 12.4639 13.39 12.4639 18C12.4639 22.61 14.2139 27.22 17.7039 30.73L43.6939 56.86L69.6839 30.73C73.1739 27.21 74.9239 22.6 74.9239 17.99C74.9239 13.38 73.1739 8.76998 69.6839 5.24998C66.1839 1.72998 61.6039 -0.0200195 57.0139 -0.0200195L57.0339 -1.95317e-05Z" fill="#EF6820"/>
<path d="M54.7639 21.9H47.3839V14.51H40.0439V21.9H32.6639V29.23H40.0439V36.62H47.3839V29.23H54.7639V21.9Z" fill="white" stroke="#EF6820" stroke-width="1.5" stroke-linejoin="round"/>
<path d="M43.7039 62.5C38.4039 62.5 34.0939 58.19 34.0939 52.89C34.0939 47.59 38.4039 43.27 43.7039 43.27C49.0039 43.27 53.3139 47.58 53.3139 52.89C53.3139 58.2 49.0039 62.5 43.7039 62.5Z" fill="white"/>
<path d="M43.7039 44.02C48.5939 44.02 52.5639 48 52.5639 52.88C52.5639 57.76 48.5839 61.74 43.7039 61.74C38.8239 61.74 34.8439 57.76 34.8439 52.88C34.8439 48 38.8239 44.02 43.7039 44.02ZM43.7039 42.52C37.9839 42.52 33.3439 47.16 33.3439 52.88C33.3439 58.6 37.9839 63.24 43.7039 63.24C49.4239 63.24 54.0639 58.6 54.0639 52.88C54.0639 47.16 49.4239 42.52 43.7039 42.52Z" fill="#00A78A"/>
<path d="M26.9839 84.2899V83.8999C26.9839 83.4799 27.0039 83.0799 27.0339 82.6699C27.3239 78.6799 29.0639 74.9199 31.9139 72.0699C35.0839 68.9099 39.2739 67.1699 43.7139 67.1699C48.1539 67.1699 52.3539 68.9199 55.5239 72.0899C55.5239 72.0899 55.5739 72.1399 55.6239 72.1899C58.4139 75.0199 60.1139 78.7499 60.4039 82.6799C60.4039 82.6899 60.4039 82.6999 60.4039 82.7199C60.4339 83.1099 60.4439 83.5099 60.4439 83.9099V84.2999H26.9839V84.2899Z" fill="white"/>
<path d="M43.7139 67.9199C47.9439 67.9199 51.9339 69.5699 54.9539 72.5699C54.9939 72.6199 55.0339 72.6599 55.0839 72.7099C57.7539 75.4199 59.3739 78.9799 59.6539 82.7299C59.6539 82.7499 59.6539 82.7599 59.6539 82.7799C59.6739 83.0299 59.6839 83.2799 59.6939 83.5399H27.7439C27.7439 83.2699 27.7639 82.9999 27.7839 82.7299C28.0639 78.9199 29.7239 75.3299 32.4539 72.6099C35.4839 69.5899 39.4839 67.9299 43.7239 67.9299M43.7139 66.4199C38.9139 66.4199 34.5539 68.3799 31.3839 71.5399C28.4939 74.4199 26.5939 78.3099 26.2839 82.6099C26.2539 83.0399 26.2339 83.4599 26.2339 83.8999V85.0399H61.1939V83.8999C61.1939 83.4699 61.1739 83.0399 61.1439 82.6099C60.8339 78.3699 58.9839 74.5299 56.1539 71.6499C56.1239 71.6199 56.0839 71.5799 56.0639 71.5499C52.8939 68.3799 48.5239 66.4099 43.7239 66.4099L43.7139 66.4199Z" fill="#00A78A"/>
</g>
<defs>
<clipPath id="clip0_15147_1299">
<rect width="85.48" height="85.04" fill="white" transform="translate(0.753906)"/>
</clipPath>
</defs>
</svg>
