<svg width="58" height="59" viewBox="0 0 58 59" fill="none" xmlns="http://www.w3.org/2000/svg">
<g clip-path="url(#clip0_15147_5195)">
<path d="M14.1827 7.48076C14.1827 7.48076 13.0697 7.67779 11.6974 8.41667L12.292 9.6974C13.4813 9.05704 14.3962 8.89284 14.3962 8.89284L14.1827 7.48076Z" fill="#00A78A"/>
<path d="M6.33043 14.5083C5.46135 16.5936 5.01918 19.073 5.01918 21.8479H6.34568C6.34568 17.1683 7.62644 13.6053 10.1575 11.2244L9.28837 10.1572C8.03811 11.3394 7.0318 12.8007 6.33043 14.5083Z" fill="#00A78A"/>
<path d="M56.5087 14.6725C55.5633 11.6021 54.2216 9.08988 52.4834 7.20162C50.4251 4.95214 47.8026 3.57289 44.7226 3.09672C42.4051 2.73549 40.423 2.89969 38.8068 3.57289C37.343 4.18042 36.1843 5.19843 35.3762 6.61052C32.7842 11.0274 34.2784 17.8579 35.4829 19.8119C36.535 21.5031 36.7484 22.8331 36.7789 23.5555C36.0013 23.4899 34.4309 23.3585 32.9214 23.9989C30.985 24.8199 29.75 26.6096 29.2316 29.286L29.1706 29.598C29.1706 29.598 29.1096 29.6965 29.0639 29.6965C29.0181 29.6965 28.9724 29.6636 28.9571 29.598L28.8962 29.286C28.3778 26.6096 27.1427 24.8199 25.2064 23.9989C23.6969 23.3585 22.1264 23.4899 21.3488 23.5555C21.3793 22.8495 21.5928 21.5195 22.6448 19.8119C23.8494 17.8744 25.3283 11.0438 22.7516 6.61052C21.9282 5.19843 20.7694 4.18042 19.321 3.57289C17.6895 2.91611 15.7074 2.75191 13.3898 3.09672C10.2947 3.57289 7.68742 4.95214 5.62906 7.20162C3.89089 9.08988 2.5339 11.6021 1.60383 14.6725C-0.210578 20.6 -0.012366 27.1514 0.155352 29.6965C0.384059 33.1774 1.07018 38.2347 2.99131 42.5038C4.05861 44.8682 5.40036 46.7236 6.97081 48.0207C8.83096 49.5478 11.0113 50.3359 13.4966 50.3359C15.5702 50.3359 17.5828 49.3179 19.1532 47.4461C21.1049 45.1473 22.1112 41.9291 21.8367 38.8258C21.608 36.133 21.2574 34.7373 21.0439 33.8178C20.8762 33.1446 20.7847 32.7834 20.8304 32.3236C22.2027 32.3893 23.5749 32.6684 24.4897 33.4566C25.1759 34.0477 25.5113 34.8687 25.5113 35.9523V55.4424H26.8378V35.9523C26.8378 34.4253 26.3194 33.2103 25.3131 32.34C22.4161 29.8443 16.3173 31.3056 16.0733 31.3549L16.363 32.7505C16.363 32.7505 17.7963 32.4057 19.5192 32.3236C19.4887 32.9804 19.6107 33.4894 19.7784 34.179C19.9918 35.0493 20.3273 36.3793 20.5407 38.9407C20.7694 41.6499 19.8851 44.4577 18.1927 46.4609C16.8662 48.0207 15.2042 48.8746 13.5118 48.8746C9.44084 48.8746 6.31518 46.5101 4.21108 41.847C2.38143 37.7749 1.7258 32.9147 1.4971 29.5487C1.32938 27.0858 1.14641 20.7642 2.88458 15.083C4.75998 8.87642 8.37354 5.31337 13.5881 4.50881C17.4608 3.9177 20.1748 4.87004 21.6233 7.36582C23.7731 11.0438 22.6296 17.2668 21.5318 19.0073C19.5802 22.1599 20.0681 24.3601 20.0833 24.4422C20.1596 24.7542 20.4188 24.9841 20.7237 24.9841H20.9524C21.0744 24.9841 21.2269 24.984 21.4098 24.9512C23.8341 24.7213 26.7311 25.0497 27.5849 29.5487L27.6459 29.8607C27.7831 30.5667 28.3778 31.0921 29.0486 31.0921C29.7195 31.0921 30.3141 30.5831 30.4514 29.8607L30.5123 29.5487C31.3662 25.0497 34.2631 24.7378 36.6874 24.9512C36.8704 24.9676 37.0229 24.9841 37.1448 24.9841H37.3735C37.6785 24.9841 37.9377 24.7542 38.0139 24.4422C38.0292 24.3437 38.5171 22.1435 36.5654 19.0073C35.4829 17.2504 34.3241 11.0438 36.474 7.36582C37.9377 4.87004 40.6364 3.9177 44.5092 4.50881C49.7237 5.31337 53.322 8.87642 55.2279 15.1159C56.9661 20.7971 56.7679 27.135 56.6154 29.5815C56.3867 32.9476 55.7463 37.8078 53.9014 41.8798C51.7973 46.543 48.6716 48.9074 44.6007 48.9074C42.9082 48.9074 41.2311 48.0536 39.9198 46.4937C38.2274 44.4905 37.3431 41.6828 37.5718 38.9735C37.7852 36.3957 38.1207 35.0821 38.3341 34.2119C38.5018 33.5222 38.6238 33.0132 38.5933 32.3565C40.301 32.4385 41.7037 32.7834 41.7495 32.7834L42.0392 31.3877C41.78 31.322 35.6964 29.8771 32.7994 32.3729C31.7931 33.2431 31.2747 34.4582 31.2747 35.9852V56.0992H32.6012V35.9852C32.6012 34.8851 32.9366 34.0805 33.6228 33.4894C34.5376 32.7013 35.9098 32.4221 37.2821 32.3565C37.3126 32.8162 37.2363 33.1774 37.0686 33.8506C36.8399 34.7701 36.5045 36.1658 36.2758 38.8586C36.0166 41.9619 37.0229 45.1802 38.9592 47.4789C40.5297 49.3343 42.5423 50.3688 44.6159 50.3688C47.086 50.3688 49.2815 49.597 51.1417 48.0536C52.7121 46.7564 54.0539 44.901 55.1212 42.5366C57.0423 38.2675 57.7284 33.2103 57.9571 29.7293C58.1249 27.1843 58.3231 20.6329 56.5087 14.7054V14.6725Z" fill="#00A78A"/>
</g>
<defs>
<clipPath id="clip0_15147_5195">
<rect width="58" height="58" fill="white" transform="translate(0 0.0400391)"/>
</clipPath>
</defs>
</svg>
